<svg xmlns="http://www.w3.org/2000/svg" xmlns:xlink="http://www.w3.org/1999/xlink" width="178" zoomAndPan="magnify" viewBox="0 0 133.5 131.999998" height="176" preserveAspectRatio="xMidYMid meet" version="1.0"><defs><g/><clipPath id="9e9c84b2e8"><rect x="0" width="57" y="0" height="35"/></clipPath><clipPath id="6c803aea2c"><path d="M 13 67 L 71 67 L 71 101.429688 L 13 101.429688 Z M 13 67 " clip-rule="nonzero"/></clipPath><clipPath id="52afc63bfc"><rect x="0" width="58" y="0" height="35"/></clipPath><clipPath id="8608c9a00a"><path d="M 40 31 L 74.859375 31 L 74.859375 89 L 40 89 Z M 40 31 " clip-rule="nonzero"/></clipPath><clipPath id="bc8125b412"><rect x="0" width="35" y="0" height="58"/></clipPath><clipPath id="a1f02d8957"><path d="M 0.976562 40 L 35 40 L 35 98 L 0.976562 98 Z M 0.976562 40 " clip-rule="nonzero"/></clipPath><clipPath id="19aca2b606"><rect x="0" width="35" y="0" height="58"/></clipPath><clipPath id="ef3750c32a"><path d="M 29 0.527344 L 49 0.527344 L 49 88 L 29 88 Z M 29 0.527344 " clip-rule="nonzero"/></clipPath><clipPath id="7cb97194f7"><rect x="0" width="20" y="0" height="88"/></clipPath><clipPath id="05bca7ef45"><rect x="0" width="75" y="0" height="102"/></clipPath></defs><g transform="matrix(1, 0, 0, 1, 27, 10)"><g clip-path="url(#05bca7ef45)"><g transform="matrix(1, 0, 0, 1, 5, 26)"><g clip-path="url(#9e9c84b2e8)"><g fill="#a44217" fill-opacity="1"><g transform="translate(14.222425, 0.914386)"><g><path d="M 0 2.765625 L 0.703125 2.765625 C 0.953125 3.597656 1.492188 4.164062 2.328125 4.46875 C 3.160156 4.78125 4.679688 4.9375 6.890625 4.9375 L 31.078125 4.9375 C 33.316406 4.9375 34.84375 4.78125 35.65625 4.46875 C 36.46875 4.164062 37.003906 3.597656 37.265625 2.765625 L 37.96875 2.765625 L 37.96875 27.984375 L 30.90625 28.578125 L 30.75 27.984375 C 33.132812 27.046875 34.796875 25.734375 35.734375 24.046875 C 36.679688 22.367188 37.15625 20.140625 37.15625 17.359375 L 37.15625 9.375 L 20.71875 9.375 L 20.71875 16.328125 C 20.71875 18.390625 20.851562 19.988281 21.125 21.125 C 21.394531 22.257812 21.8125 23.085938 22.375 23.609375 C 22.9375 24.140625 23.613281 24.515625 24.40625 24.734375 L 24.40625 25.375 L 16.21875 25.375 L 16.21875 24.734375 C 17.050781 24.515625 17.738281 24.140625 18.28125 23.609375 C 18.820312 23.085938 19.226562 22.257812 19.5 21.125 C 19.769531 19.988281 19.90625 18.390625 19.90625 16.328125 L 19.90625 9.375 L 3.25 9.375 C 1.625 9.375 0.8125 10.191406 0.8125 11.828125 L 0.8125 18.875 C 0.8125 21.476562 1.265625 23.628906 2.171875 25.328125 C 3.078125 27.023438 4.796875 28.363281 7.328125 29.34375 L 7.21875 29.9375 L 0 29.5 Z M 0 2.765625 "/></g></g></g></g></g><g clip-path="url(#6c803aea2c)"><g transform="matrix(1, 0, 0, 1, 13, 67)"><g clip-path="url(#52afc63bfc)"><g fill="#a44217" fill-opacity="1"><g transform="translate(43.519445, 34.264945)"><g><path d="M 0 -2.765625 L -0.703125 -2.765625 C -0.953125 -3.597656 -1.492188 -4.164062 -2.328125 -4.46875 C -3.160156 -4.78125 -4.679688 -4.9375 -6.890625 -4.9375 L -31.078125 -4.9375 C -33.316406 -4.9375 -34.84375 -4.78125 -35.65625 -4.46875 C -36.46875 -4.164062 -37.003906 -3.597656 -37.265625 -2.765625 L -37.96875 -2.765625 L -37.96875 -27.984375 L -30.90625 -28.578125 L -30.75 -27.984375 C -33.132812 -27.046875 -34.796875 -25.734375 -35.734375 -24.046875 C -36.679688 -22.367188 -37.15625 -20.140625 -37.15625 -17.359375 L -37.15625 -9.375 L -20.71875 -9.375 L -20.71875 -16.328125 C -20.71875 -18.390625 -20.851562 -19.988281 -21.125 -21.125 C -21.394531 -22.257812 -21.8125 -23.085938 -22.375 -23.609375 C -22.9375 -24.140625 -23.613281 -24.515625 -24.40625 -24.734375 L -24.40625 -25.375 L -16.21875 -25.375 L -16.21875 -24.734375 C -17.050781 -24.515625 -17.738281 -24.140625 -18.28125 -23.609375 C -18.820312 -23.085938 -19.226562 -22.257812 -19.5 -21.125 C -19.769531 -19.988281 -19.90625 -18.390625 -19.90625 -16.328125 L -19.90625 -9.375 L -3.25 -9.375 C -1.625 -9.375 -0.8125 -10.191406 -0.8125 -11.828125 L -0.8125 -18.875 C -0.8125 -21.476562 -1.265625 -23.628906 -2.171875 -25.328125 C -3.078125 -27.023438 -4.796875 -28.363281 -7.328125 -29.34375 L -7.21875 -29.9375 L 0 -29.5 Z M 0 -2.765625 "/></g></g></g></g></g></g><g clip-path="url(#8608c9a00a)"><g transform="matrix(1, 0, 0, 1, 40, 31)"><g clip-path="url(#bc8125b412)"><g fill="#a44217" fill-opacity="1"><g transform="translate(34.655402, 14.687773)"><g><path d="M -2.765625 0 L -2.765625 0.703125 C -3.597656 0.953125 -4.164062 1.492188 -4.46875 2.328125 C -4.78125 3.160156 -4.9375 4.679688 -4.9375 6.890625 L -4.9375 31.078125 C -4.9375 33.316406 -4.78125 34.84375 -4.46875 35.65625 C -4.164062 36.46875 -3.597656 37.003906 -2.765625 37.265625 L -2.765625 37.96875 L -27.984375 37.96875 L -28.578125 30.90625 L -27.984375 30.75 C -27.046875 33.132812 -25.734375 34.796875 -24.046875 35.734375 C -22.367188 36.679688 -20.140625 37.15625 -17.359375 37.15625 L -9.375 37.15625 L -9.375 20.71875 L -16.328125 20.71875 C -18.390625 20.71875 -19.988281 20.851562 -21.125 21.125 C -22.257812 21.394531 -23.085938 21.8125 -23.609375 22.375 C -24.140625 22.9375 -24.515625 23.613281 -24.734375 24.40625 L -25.375 24.40625 L -25.375 16.21875 L -24.734375 16.21875 C -24.515625 17.050781 -24.140625 17.738281 -23.609375 18.28125 C -23.085938 18.820312 -22.257812 19.226562 -21.125 19.5 C -19.988281 19.769531 -18.390625 19.90625 -16.328125 19.90625 L -9.375 19.90625 L -9.375 3.25 C -9.375 1.625 -10.191406 0.8125 -11.828125 0.8125 L -18.875 0.8125 C -21.476562 0.8125 -23.628906 1.265625 -25.328125 2.171875 C -27.023438 3.078125 -28.363281 4.796875 -29.34375 7.328125 L -29.9375 7.21875 L -29.5 0 Z M -2.765625 0 "/></g></g></g></g></g></g><g clip-path="url(#a1f02d8957)"><g transform="matrix(1, 0, 0, 1, -0.000000000000007105, 40)"><g clip-path="url(#19aca2b606)"><g fill="#a44217" fill-opacity="1"><g transform="translate(1.086478, 43.128995)"><g><path d="M 2.765625 0 L 2.765625 -0.703125 C 3.597656 -0.953125 4.164062 -1.492188 4.46875 -2.328125 C 4.78125 -3.160156 4.9375 -4.679688 4.9375 -6.890625 L 4.9375 -31.078125 C 4.9375 -33.316406 4.78125 -34.84375 4.46875 -35.65625 C 4.164062 -36.46875 3.597656 -37.003906 2.765625 -37.265625 L 2.765625 -37.96875 L 27.984375 -37.96875 L 28.578125 -30.90625 L 27.984375 -30.75 C 27.046875 -33.132812 25.734375 -34.796875 24.046875 -35.734375 C 22.367188 -36.679688 20.140625 -37.15625 17.359375 -37.15625 L 9.375 -37.15625 L 9.375 -20.71875 L 16.328125 -20.71875 C 18.390625 -20.71875 19.988281 -20.851562 21.125 -21.125 C 22.257812 -21.394531 23.085938 -21.8125 23.609375 -22.375 C 24.140625 -22.9375 24.515625 -23.613281 24.734375 -24.40625 L 25.375 -24.40625 L 25.375 -16.21875 L 24.734375 -16.21875 C 24.515625 -17.050781 24.140625 -17.738281 23.609375 -18.28125 C 23.085938 -18.820312 22.257812 -19.226562 21.125 -19.5 C 19.988281 -19.769531 18.390625 -19.90625 16.328125 -19.90625 L 9.375 -19.90625 L 9.375 -3.25 C 9.375 -1.625 10.191406 -0.8125 11.828125 -0.8125 L 18.875 -0.8125 C 21.476562 -0.8125 23.628906 -1.265625 25.328125 -2.171875 C 27.023438 -3.078125 28.363281 -4.796875 29.34375 -7.328125 L 29.9375 -7.21875 L 29.5 0 Z M 2.765625 0 "/></g></g></g></g></g></g><g clip-path="url(#ef3750c32a)"><g transform="matrix(1, 0, 0, 1, 29, 0.000000000000035527)"><g clip-path="url(#7cb97194f7)"><g fill="#a44217" fill-opacity="1"><g transform="translate(1.263841, 68.610018)"><g><path d="M 8.828125 0.28125 C 7.722656 0.28125 6.75 0.0546875 5.90625 -0.390625 C 5.0625 -0.835938 4.414062 -1.457031 3.96875 -2.25 C 3.519531 -3.050781 3.296875 -3.953125 3.296875 -4.953125 C 3.296875 -5.953125 3.519531 -6.847656 3.96875 -7.640625 C 4.414062 -8.429688 5.0625 -9.054688 5.90625 -9.515625 C 6.75 -9.984375 7.722656 -10.21875 8.828125 -10.21875 C 9.960938 -10.21875 10.953125 -9.988281 11.796875 -9.53125 C 12.640625 -9.082031 13.285156 -8.460938 13.734375 -7.671875 C 14.179688 -6.878906 14.40625 -5.984375 14.40625 -4.984375 C 14.40625 -3.453125 13.898438 -2.191406 12.890625 -1.203125 C 11.878906 -0.210938 10.523438 0.28125 8.828125 0.28125 Z M 8.828125 0.28125 "/></g></g></g></g></g></g></g></g></svg>